<svg xmlns="http://www.w3.org/2000/svg" width="240" height="240" viewBox="0 0 240 240" version="1.1"><path d="M 84.442 60.205 C 65.224 80.117, 44.174 101.927, 37.663 108.670 L 25.827 120.931 72.104 168.715 C 97.556 194.997, 118.897 216.500, 119.528 216.500 C 120.159 216.500, 141.490 194.991, 166.930 168.703 L 213.184 120.905 201.842 109.183 C 195.604 102.735, 174.557 80.932, 155.072 60.730 C 135.586 40.529, 119.585 24, 119.514 24 C 119.442 24, 103.660 40.292, 84.442 60.205 M 62 120.500 L 62 150 70 150 L 78 150 78 139 L 78 128 86 128 L 94 128 94 139 L 94 150 108.684 150 C 124.649 150, 128.244 149.081, 134.277 143.457 L 137.055 140.868 140.277 143.589 C 146.637 148.958, 150.376 149.954, 164.250 149.978 L 177 150 177 135 L 177 120 169 120 L 161 120 161 128.500 C 161 138.279, 160.573 138.615, 153.036 134.750 C 147.747 132.038, 144.999 127.341, 145.002 121.016 C 145.004 115.270, 147.565 110.164, 151.898 107.270 C 154.909 105.258, 156.530 105, 166.148 105 L 177 105 177 98 L 177 91 166.182 91 C 153.297 91, 146.913 92.634, 141.491 97.321 L 137.611 100.675 132.644 96.916 C 126.158 92.006, 121.720 91, 106.557 91 L 94 91 94 102 L 94 113 86 113 L 78 113 78 102 L 78 91 70 91 L 62 91 62 120.500 M 110 121.127 L 110 137.254 115.074 136.767 C 124.160 135.894, 129.333 130.233, 129.333 121.166 C 129.333 111.107, 123.641 105, 114.266 105 L 110 105 110 121.127" stroke="none" fill="#fc0605" fill-rule="evenodd"/><path d="M 0 120.004 L 0 240.008 120.250 239.754 L 240.500 239.500 240.754 119.750 L 241.008 -0 120.504 -0 L 0 0 0 120.004 M 0.484 120.500 C 0.484 186.500, 0.604 213.647, 0.750 180.827 C 0.896 148.007, 0.896 94.007, 0.750 60.827 C 0.604 27.647, 0.484 54.500, 0.484 120.500 M 84.442 60.205 C 65.224 80.117, 44.174 101.927, 37.663 108.670 L 25.827 120.931 72.104 168.715 C 97.556 194.997, 118.897 216.500, 119.528 216.500 C 120.159 216.500, 141.490 194.991, 166.930 168.703 L 213.184 120.905 201.842 109.183 C 195.604 102.735, 174.557 80.932, 155.072 60.730 C 135.586 40.529, 119.585 24, 119.514 24 C 119.442 24, 103.660 40.292, 84.442 60.205 M 62 120.500 L 62 150 70 150 L 78 150 78 139 L 78 128 86 128 L 94 128 94 139 L 94 150 108.684 150 C 124.649 150, 128.244 149.081, 134.277 143.457 L 137.055 140.868 140.277 143.589 C 146.637 148.958, 150.376 149.954, 164.250 149.978 L 177 150 177 135 L 177 120 169 120 L 161 120 161 128.500 C 161 138.279, 160.573 138.615, 153.036 134.750 C 147.747 132.038, 144.999 127.341, 145.002 121.016 C 145.004 115.270, 147.565 110.164, 151.898 107.270 C 154.909 105.258, 156.530 105, 166.148 105 L 177 105 177 98 L 177 91 166.182 91 C 153.297 91, 146.913 92.634, 141.491 97.321 L 137.611 100.675 132.644 96.916 C 126.158 92.006, 121.720 91, 106.557 91 L 94 91 94 102 L 94 113 86 113 L 78 113 78 102 L 78 91 70 91 L 62 91 62 120.500 M 110 121.127 L 110 137.254 115.074 136.767 C 124.160 135.894, 129.333 130.233, 129.333 121.166 C 129.333 111.107, 123.641 105, 114.266 105 L 110 105 110 121.127" stroke="none" fill="#fcb304" fill-rule="evenodd"/></svg>